<svg width="1440" height="93" viewBox="0 0 1440 93" fill="none" xmlns="http://www.w3.org/2000/svg">
<rect width="1440" height="93" fill="#1E1E1E"/>
<g clip-path="url(#clip0_0_1)">
<rect width="1440" height="1024" transform="translate(0 -931)" fill="white"/>
<g filter="url(#filter0_f_0_1)">
<ellipse cx="1113.5" cy="-672.603" rx="135.5" ry="146.5" fill="#EAC81F"/>
</g>
<path d="M201.516 9.70664C217.021 3.29808 233.634 0 250.411 0H1186.9C1203.48 0 1219.89 3.21974 1235.24 9.48037L1440 93H0L201.516 9.70664Z" fill="#F8F7F7"/>
<g filter="url(#filter1_d_0_1)">
<ellipse cx="734" cy="44.5" rx="478" ry="24.5" fill="url(#paint0_linear_0_1)" fill-opacity="0.7" shape-rendering="crispEdges"/>
</g>
<path d="M524.677 -272.889C573.228 -377.174 612.407 -254.415 636.623 -206.979C671.043 -139.552 756.301 -79.4 553.971 -58.9889C351.642 -38.5779 463.989 -142.533 524.677 -272.889Z" fill="#E2E9F0"/>
</g>
<defs>
<filter id="filter0_f_0_1" x="278" y="-1519.1" width="1671" height="1693" filterUnits="userSpaceOnUse" color-interpolation-filters="sRGB">
<feFlood flood-opacity="0" result="BackgroundImageFix"/>
<feBlend mode="normal" in="SourceGraphic" in2="BackgroundImageFix" result="shape"/>
<feGaussianBlur stdDeviation="350" result="effect1_foregroundBlur_0_1"/>
</filter>
<filter id="filter1_d_0_1" x="252" y="20" width="964" height="57" filterUnits="userSpaceOnUse" color-interpolation-filters="sRGB">
<feFlood flood-opacity="0" result="BackgroundImageFix"/>
<feColorMatrix in="SourceAlpha" type="matrix" values="0 0 0 0 0 0 0 0 0 0 0 0 0 0 0 0 0 0 127 0" result="hardAlpha"/>
<feOffset dy="4"/>
<feGaussianBlur stdDeviation="2"/>
<feComposite in2="hardAlpha" operator="out"/>
<feColorMatrix type="matrix" values="0 0 0 0 0.0705882 0 0 0 0 0.141176 0 0 0 0 0.34902 0 0 0 0.35 0"/>
<feBlend mode="normal" in2="BackgroundImageFix" result="effect1_dropShadow_0_1"/>
<feBlend mode="normal" in="SourceGraphic" in2="effect1_dropShadow_0_1" result="shape"/>
</filter>
<linearGradient id="paint0_linear_0_1" x1="734" y1="20" x2="734" y2="69" gradientUnits="userSpaceOnUse">
<stop offset="0.106755" stop-color="#E2E9F0"/>
<stop offset="0.440102" stop-color="#DCE4EB"/>
<stop offset="1" stop-color="#E2E9F0" stop-opacity="0"/>
</linearGradient>
<clipPath id="clip0_0_1">
<rect width="1440" height="1024" fill="white" transform="translate(0 -931)"/>
</clipPath>
</defs>
</svg>
